<svg version="1.1" xmlns="http://www.w3.org/2000/svg" xmlns:xlink="http://www.w3.org/1999/xlink" width="400" height="400" viewBox="0 0 400 400"><defs/><g><rect fill="rgb(255,255,255)" stroke="none" x="0" y="0" width="400" height="400" transform="matrix(1 0 0 1 0 0)" fill-opacity="1"/><path fill="none" stroke="rgb(255,0,0)" paint-order="fill stroke markers" d=" M 310 155 Q 330 50 250 112" stroke-opacity="1" stroke-linecap="round" stroke-miterlimit="10" stroke-width="4" stroke-dasharray=""/><path fill="none" stroke="rgb(255,0,0)" paint-order="fill stroke markers" d=" M 90 155 Q 70 50 150 112" stroke-opacity="1" stroke-linecap="round" stroke-miterlimit="10" stroke-width="4" stroke-dasharray=""/><path fill="none" stroke="rgb(255,0,0)" paint-order="fill stroke markers" d=" M 270 155 C 273.3333333333333 158.33333333333334 283.3333333333333 180 290 175 C 296.6666666666667 170 311.6666666666667 132.5 310 125 C 308.3333333333333 117.5 286.6666666666667 125 280 130 C 273.3333333333333 135 271.6666666666667 150.83333333333334 270 155 L 270 155 Z" stroke-opacity="1" stroke-linecap="round" stroke-miterlimit="10" stroke-width="4" stroke-dasharray=""/><path fill="none" stroke="rgb(255,0,0)" paint-order="fill stroke markers" d=" M 245 150 C 240.16666666666666 151.66666666666666 217.5 158.33333333333334 215 150 C 212.5 141.66666666666666 224.16666666666666 104.66666666666667 230 100 C 235.83333333333334 95.33333333333333 247.66666666666666 115.33333333333333 250 122 C 252.33333333333334 128.66666666666666 245 137 244 140 L 244 140 Z" stroke-opacity="1" stroke-linecap="round" stroke-miterlimit="10" stroke-width="4" stroke-dasharray=""/><path fill="none" stroke="rgb(255,0,0)" paint-order="fill stroke markers" d=" M 75 200 C 75 147.532948769 130.964406275 105 200 105 C 269.035593725 105 325 147.532948769 325 200 C 325 252.467051231 269.035593725 295 200 295 C 130.964406275 295 75 252.467051231 75 200" stroke-opacity="1" stroke-linecap="round" stroke-miterlimit="10" stroke-width="4" stroke-dasharray=""/><path fill="none" stroke="rgb(255,0,0)" paint-order="fill stroke markers" d=" M 245 140 C 245 131.715728753 251.715728753 125 260 125 C 268.284271247 125 275 131.715728753 275 140 C 275 148.284271247 268.284271247 155 260 155 C 251.715728753 155 245 148.284271247 245 140" stroke-opacity="1" stroke-linecap="round" stroke-miterlimit="10" stroke-width="4" stroke-dasharray=""/><path fill="none" stroke="rgb(255,0,0)" paint-order="fill stroke markers" d=" M 190 250 C 190 247.238576251 194.477152502 245 200 245 C 205.522847498 245 210 247.238576251 210 250 C 210 252.761423749 205.522847498 255 200 255 C 194.477152502 255 190 252.761423749 190 250" stroke-opacity="1" stroke-linecap="round" stroke-miterlimit="10" stroke-width="4" stroke-dasharray=""/><path fill="none" stroke="rgb(255,0,0)" paint-order="fill stroke markers" d=" M 335 200 L 300 210" stroke-opacity="1" stroke-linecap="round" stroke-miterlimit="10" stroke-width="4" stroke-dasharray=""/><path fill="none" stroke="rgb(255,0,0)" paint-order="fill stroke markers" d=" M 340 220 L 300 220" stroke-opacity="1" stroke-linecap="round" stroke-miterlimit="10" stroke-width="4" stroke-dasharray=""/><path fill="none" stroke="rgb(255,0,0)" paint-order="fill stroke markers" d=" M 335 240 L 300 230" stroke-opacity="1" stroke-linecap="round" stroke-miterlimit="10" stroke-width="4" stroke-dasharray=""/><path fill="none" stroke="rgb(255,0,0)" paint-order="fill stroke markers" d=" M 65 200 L 100 210" stroke-opacity="1" stroke-linecap="round" stroke-miterlimit="10" stroke-width="4" stroke-dasharray=""/><path fill="none" stroke="rgb(255,0,0)" paint-order="fill stroke markers" d=" M 60 220 L 100 220" stroke-opacity="1" stroke-linecap="round" stroke-miterlimit="10" stroke-width="4" stroke-dasharray=""/><path fill="none" stroke="rgb(255,0,0)" paint-order="fill stroke markers" d=" M 65 240 L 100 230" stroke-opacity="1" stroke-linecap="round" stroke-miterlimit="10" stroke-width="4" stroke-dasharray=""/><path fill="none" stroke="rgb(255,0,0)" paint-order="fill stroke markers" d=" M 135 220 C 135 213.0964406275 137.238576251 207.5 140 207.5 C 142.761423749 207.5 145 213.0964406275 145 220 C 145 226.9035593725 142.761423749 232.5 140 232.5 C 137.238576251 232.5 135 226.9035593725 135 220" stroke-opacity="1" stroke-linecap="round" stroke-miterlimit="10" stroke-width="10" stroke-dasharray=""/><path fill="none" stroke="rgb(255,0,0)" paint-order="fill stroke markers" d=" M 255 220 C 255 213.0964406275 257.238576251 207.5 260 207.5 C 262.761423749 207.5 265 213.0964406275 265 220 C 265 226.9035593725 262.761423749 232.5 260 232.5 C 257.238576251 232.5 255 226.9035593725 255 220" stroke-opacity="1" stroke-linecap="round" stroke-miterlimit="10" stroke-width="10" stroke-dasharray=""/></g></svg>